<svg width="24" height="24" viewBox="0 0 24 24" fill="none" xmlns="http://www.w3.org/2000/svg">
<rect opacity="0.01" width="24" height="24" fill="#D8D8D8"/>
<path d="M19.7564 2.66111C19.5939 2.41419 19.375 2.23363 19.1002 2.11908C18.9252 2.03986 18.7418 2.00019 18.5501 2.00019V2H5.44992C5.25829 2 5.07506 2.03968 4.90002 2.1189C4.62507 2.23335 4.40625 2.41415 4.24378 2.66092C4.08135 2.9077 4 3.18077 4 3.48047V20.5195C4 20.8193 4.08135 21.0923 4.24378 21.3393C4.40625 21.586 4.62507 21.7668 4.90002 21.8812C5.07489 21.9604 5.25829 22 5.44992 22C5.84173 22 6.18739 21.8545 6.48747 21.564L12 15.9589L17.5126 21.5641C17.8043 21.8456 18.1502 21.9867 18.55 21.9867C18.7584 21.9867 18.9418 21.9517 19.1002 21.8811C19.3749 21.7667 19.5938 21.586 19.7564 21.3389C19.9188 21.0923 20 20.8192 20 20.5195V3.48065C20 3.18096 19.9187 2.90789 19.7564 2.66111Z" fill="#110E47"/>
</svg>
